<svg width="74" height="57" viewBox="0 0 74 57" fill="none" xmlns="http://www.w3.org/2000/svg">
<path fill-rule="evenodd" clip-rule="evenodd" d="M34.9287 0.0844559C32.1173 0.626924 29.5038 2.09318 27.5052 4.24945L26.216 5.64031L24.4958 5.53588C17.6457 5.12067 10.9004 10.4149 9.5964 17.2299C9.42348 18.1341 9.24501 18.9009 9.19987 18.9339C9.15473 18.9669 8.63457 19.172 8.04382 19.3899C5.64238 20.2756 2.87333 22.7155 1.627 25.044C-1.20848 30.3423 -0.288319 36.3574 4.0009 40.5623C5.36945 41.904 6.61902 42.6745 8.74291 43.4865C10.2446 44.0605 10.4198 44.0741 17.4514 44.1546L24.6275 44.2369L25.2454 44.8225C25.8611 45.406 25.8634 45.4219 25.9405 49.3598C26.0253 53.6811 26.1292 54.0799 27.5389 55.4837C29.0788 57.0173 28.9707 57 37.0121 57C45.0535 57 44.9454 57.0173 46.4852 55.4837C47.8917 54.0829 47.998 53.6779 48.0818 49.3921C48.1575 45.5302 48.1674 45.4636 48.7631 44.8389L49.3675 44.2049L55.6322 44.2009C62.5926 44.1963 64.1551 44.0001 66.5267 42.8322C73.1838 39.5539 75.8642 31.9593 72.6331 25.5304C71.2571 22.7925 68.629 20.3667 65.9804 19.3899C65.3896 19.172 64.8695 18.9669 64.8243 18.9339C64.7792 18.9009 64.6007 18.1341 64.4278 17.2299C63.1176 10.3826 56.3547 5.10015 49.4663 5.54418C47.811 5.65069 47.6598 5.6221 47.3443 5.14257C46.1653 3.35079 43.5923 1.50575 41.0251 0.611477C39.6941 0.148086 36.1762 -0.156231 34.9287 0.0844559ZM39.1695 3.97395C42.9208 4.94707 45.372 7.59647 46.0931 11.4571L46.3533 12.851H48.1966H50.0399L49.9036 11.7559C49.8288 11.1537 49.6971 10.3238 49.611 9.91158C49.4589 9.18307 49.476 9.16232 50.2358 9.16578C51.4571 9.17108 53.8014 9.79101 55.1239 10.4584C57.5579 11.687 60.2386 15.1025 60.7374 17.6113L60.8816 18.3372L59.6531 18.5035C57.9917 18.7282 55.8334 19.4164 54.7801 20.0571L53.9132 20.5843L54.7533 21.8473C55.2151 22.5419 55.6787 23.2042 55.7834 23.319C55.8945 23.441 56.5452 23.2725 57.3454 22.9149C62.7421 20.503 68.9221 23.7502 70.1434 29.6394C71.1309 34.4006 67.592 39.3192 62.4849 40.2838C60.9791 40.5683 52.0587 40.5948 52.0587 40.3149C52.0587 40.2042 52.2594 39.6597 52.5048 39.1046C53.3046 37.2952 53.7567 34.4077 53.6035 32.0861C53.1044 24.5188 47.6473 18.4029 40.0272 16.8712C30.6622 14.9888 21.2214 22.1306 20.4427 31.6868C20.2705 33.7984 20.6115 36.5273 21.2798 38.3859C21.5414 39.1138 21.815 39.8907 21.8874 40.1127C22.0103 40.4887 21.6735 40.5162 16.9417 40.5162C11.3673 40.5162 10.3652 40.3555 8.15818 39.108C4.20137 36.8717 2.61777 31.5494 4.62916 27.2475C5.30579 25.7999 7.40075 23.7031 8.83342 23.0389C12.0069 21.5676 15.6438 21.8964 18.4848 23.9111L19.1478 24.3814L20.3392 23.0541L21.5305 21.7269L20.7643 21.0752C19.2719 19.8063 16.8544 18.8504 14.2537 18.5012C13.1467 18.3525 13.1402 18.3465 13.2851 17.6184C13.5935 16.0696 14.8711 13.8875 16.3125 12.4482C17.9975 10.7653 19.8723 9.79055 22.233 9.3705C25.0815 8.86353 28.536 9.71193 30.7573 11.4641C31.242 11.8465 31.7245 12.1594 31.8291 12.1594C32.1351 12.1594 34.2342 10.0142 34.2342 9.70133C34.2342 9.34975 32.9578 8.36141 31.2657 7.40304L29.9913 6.68121L31.4187 5.63478C33.8991 3.81626 36.4524 3.26918 39.1695 3.97395ZM20.345 14.6953V16.5397H22.1969H24.0488V14.6953V12.851H22.1969H20.345V14.6953ZM51.8272 16.5397V18.384H53.6791H55.531V16.5397V14.6953H53.6791H51.8272V16.5397ZM39.7281 20.5926C45.3648 21.7523 49.4527 26.4256 49.8955 32.2166C50.1955 36.1391 48.7804 39.6825 45.7572 42.5793C44.4995 43.7846 44.4218 43.9227 44.4208 44.9541L44.4197 46.0492H41.6418H38.864V42.13C38.864 38.7756 38.9147 38.2107 39.2161 38.2107C39.4098 38.2107 40.1298 37.666 40.8159 37.0004C42.2481 35.6109 42.6923 34.4298 42.4969 32.5309C42.3036 30.6515 41.2113 29.0573 39.476 28.1224C38.4758 27.5834 35.5484 27.5834 34.5481 28.1224C32.8129 29.0573 31.7205 30.6515 31.5272 32.5309C31.3319 34.4298 31.7761 35.6109 33.2083 37.0004C33.8944 37.666 34.6143 38.2107 34.8081 38.2107C35.1095 38.2107 35.1602 38.7756 35.1602 42.13V46.0492H32.3824H29.6045L29.6043 44.9541C29.604 43.91 29.5337 43.7906 28.0957 42.3912C24.8081 39.1915 23.4405 34.7722 24.3829 30.3946C25.3748 25.7877 29.1348 21.916 33.7981 20.6996C35.9093 20.1491 37.4376 20.1214 39.7281 20.5926ZM7.47876 30.4299C7.99336 33.6584 10.5638 36.2184 13.8055 36.7309L14.7893 36.8865V35.0382V33.1902L13.9662 33.0364C13.4551 32.9408 12.802 32.5428 12.243 31.9861C11.684 31.4293 11.2844 30.779 11.1883 30.2699L11.0339 29.4501H9.17834H7.32251L7.47876 30.4299ZM62.8358 30.2699C62.6305 31.359 61.1515 32.8319 60.058 33.0364L59.2348 33.1902V35.0382V36.8865L60.2187 36.7309C63.4604 36.2184 66.0308 33.6584 66.5454 30.4299L66.7017 29.4501H64.8458H62.9902L62.8358 30.2699ZM37.7957 31.555C39.1371 32.1636 37.6866 34.7609 37.6866 34.7609C37.6866 34.7609 34.7785 33.9217 35.3801 32.4751C35.8049 31.4538 36.766 31.0877 37.7957 31.555ZM44.4197 50.7905C44.4197 51.8999 44.1236 52.6649 43.5139 53.131C43.006 53.5193 31.4159 53.5439 30.6888 53.1585C29.8605 52.719 29.6196 52.2248 29.6119 50.9482L29.6045 49.7379H37.0121H44.4197V50.7905Z" fill="#F7F7F7"/>
</svg>
