<?xml version="1.0" standalone="no"?>
<!DOCTYPE svg PUBLIC "-//W3C//DTD SVG 20010904//EN"
 "http://www.w3.org/TR/2001/REC-SVG-20010904/DTD/svg10.dtd">
<svg version="1.0" xmlns="http://www.w3.org/2000/svg"
 width="1184.000000pt" height="1184.000000pt" viewBox="0 0 1184.000000 1184.000000"
 preserveAspectRatio="xMidYMid meet">
<metadata>
Created by potrace 1.14, written by Peter Selinger 2001-2017
</metadata>
<g transform="translate(0.000000,1184.000000) scale(0.100000,-0.100000)"
fill="#000000" stroke="none">
<path d="M5610 10470 c-63 -11 -90 -17 -127 -29 -18 -5 -33 -8 -33 -6 0 2 -45
-11 -99 -30 -55 -18 -102 -31 -105 -27 -3 3 -6 0 -6 -6 0 -7 -5 -12 -10 -12
-6 0 -26 -7 -46 -15 -19 -8 -35 -14 -37 -13 -1 1 -56 -27 -122 -61 -116 -61
-294 -172 -325 -202 -8 -9 -22 -20 -31 -25 -52 -29 -224 -194 -384 -368 l-89
-97 -131 7 c-228 14 -471 9 -570 -11 -11 -3 -38 -7 -60 -11 -22 -3 -44 -7 -50
-8 -64 -16 -132 -29 -137 -28 -5 1 -8 -2 -8 -6 0 -4 -8 -8 -17 -9 -26 -1 -53
-9 -95 -27 -21 -9 -38 -13 -38 -10 0 4 -6 2 -12 -4 -7 -6 -16 -11 -20 -11 -40
-7 -354 -150 -368 -169 -3 -4 -21 -16 -40 -26 -53 -29 -145 -90 -148 -98 -2
-5 -10 -8 -17 -8 -7 0 -16 -7 -19 -16 -3 -8 -10 -12 -16 -9 -5 3 -10 2 -10 -3
0 -5 -21 -24 -47 -43 -121 -86 -315 -283 -439 -444 -59 -77 -154 -221 -154
-234 0 -5 -4 -11 -9 -13 -7 -3 -125 -234 -126 -248 -1 -3 -16 -43 -34 -90 -18
-46 -35 -91 -37 -100 -2 -8 -12 -49 -23 -90 -11 -41 -28 -111 -37 -155 -9 -44
-17 -84 -19 -90 -1 -5 -5 -28 -10 -50 -4 -22 -10 -44 -14 -50 -6 -11 -7 -17
-9 -51 -2 -17 -27 -31 -149 -79 -228 -91 -357 -164 -547 -314 -75 -59 -292
-272 -336 -331 -19 -25 -37 -47 -40 -50 -3 -3 -22 -27 -41 -55 -18 -27 -37
-51 -41 -53 -5 -2 -8 -10 -8 -18 0 -8 -3 -14 -7 -14 -5 0 -13 -10 -19 -23 -6
-12 -31 -62 -56 -112 -61 -120 -88 -181 -88 -199 0 -9 -4 -16 -8 -16 -4 0 -14
-21 -21 -47 -8 -27 -15 -52 -17 -58 -13 -41 -46 -154 -49 -170 -19 -86 -28
-134 -30 -155 -2 -14 -7 -52 -11 -85 -10 -67 -11 -396 -1 -465 6 -44 17 -116
22 -135 1 -5 5 -28 10 -50 18 -95 96 -327 136 -403 16 -31 29 -61 29 -66 0
-25 201 -336 254 -392 6 -7 26 -30 45 -53 70 -86 223 -232 318 -303 32 -24 60
-46 61 -50 2 -5 10 -8 17 -8 8 0 18 -6 22 -12 4 -7 28 -24 53 -37 25 -13 51
-28 57 -34 30 -23 231 -115 348 -159 219 -83 293 -93 763 -103 117 -2 217 -7
222 -10 6 -3 10 -1 10 5 0 6 4 9 10 5 5 -3 229 -8 497 -11 268 -2 616 -6 772
-8 l283 -4 61 -58 c34 -33 67 -66 75 -74 21 -24 44 -82 47 -120 2 -19 4 -35 5
-35 1 0 3 -25 5 -55 1 -30 3 -55 4 -55 1 0 4 -97 6 -215 7 -320 15 -568 20
-630 11 -120 14 -146 20 -170 3 -14 7 -34 9 -45 8 -48 30 -112 47 -136 10 -15
19 -30 19 -35 0 -13 73 -97 161 -184 106 -105 117 -114 187 -150 54 -27 78
-35 145 -46 15 -2 42 -6 60 -9 94 -16 332 -20 1122 -20 786 0 1007 4 1115 22
43 7 65 11 65 13 0 1 15 3 34 6 72 9 152 64 286 199 100 100 138 145 163 195
18 36 34 74 37 85 44 191 48 239 60 760 3 138 8 297 11 355 3 58 7 117 8 132
0 16 4 28 8 28 5 0 7 3 6 8 -3 16 16 68 34 92 11 14 46 52 78 86 l60 61 732 2
c725 2 953 5 1158 17 58 4 117 7 133 7 15 0 27 3 27 6 0 3 28 7 63 8 55 1 86
5 202 27 17 3 60 14 98 25 37 11 69 20 72 21 12 2 42 13 65 22 14 6 31 12 38
14 29 5 267 127 345 176 118 74 240 164 313 233 18 17 47 44 65 61 70 65 165
172 209 234 13 19 30 41 37 48 7 7 13 17 13 21 0 4 8 16 18 27 36 39 164 269
155 278 -4 3 -1 6 5 6 7 0 12 5 12 11 0 6 6 25 14 42 30 65 64 157 59 157 -3
0 -1 6 5 13 5 6 13 28 18 47 10 45 8 38 24 90 7 25 14 54 16 65 1 11 7 47 13
80 33 171 36 512 6 649 -2 11 -7 35 -9 51 -32 198 -166 557 -253 671 -13 17
-23 33 -23 36 0 9 -66 106 -84 124 -9 8 -16 18 -16 22 0 4 -12 21 -26 37 -14
17 -40 47 -57 69 -66 81 -236 240 -332 312 -55 41 -105 78 -111 83 -5 5 -21
14 -35 21 -13 7 -26 16 -29 19 -21 25 -416 202 -456 204 -12 0 -40 98 -61 207
-3 21 -36 170 -48 220 -9 42 -67 212 -80 237 -8 15 -15 31 -15 35 0 9 -93 201
-117 243 -10 17 -29 48 -43 70 -14 22 -29 47 -35 56 -18 30 -49 73 -85 120
-19 25 -46 60 -60 78 -41 55 -181 203 -253 267 -209 188 -429 330 -694 445
-120 52 -321 115 -397 125 -21 2 -42 6 -46 9 -4 3 -25 7 -46 11 -22 3 -50 7
-64 9 -108 19 -301 23 -538 13 -113 -4 -187 8 -204 36 -137 218 -431 471 -714
616 -44 22 -84 44 -91 50 -7 5 -17 10 -23 10 -6 0 -33 11 -60 25 -28 14 -50
23 -50 20 0 -4 -12 1 -27 9 -39 21 -169 60 -238 71 -53 9 -166 25 -215 30 -30
3 -71 8 -90 10 -65 9 -435 13 -480 5z m496 -593 c12 -3 38 -8 58 -11 77 -12
239 -59 301 -86 171 -75 301 -150 395 -226 147 -120 304 -321 377 -483 42 -92
76 -177 79 -193 1 -5 2 -9 4 -10 6 -9 61 -243 65 -281 2 -21 6 -41 9 -45 3 -5
7 -30 11 -57 3 -27 10 -52 15 -55 5 -3 139 -6 297 -6 l288 1 -1 25 c-2 24 -11
98 -19 150 -3 14 -9 59 -15 100 -7 41 -13 84 -15 95 -10 64 -17 104 -24 135
-13 58 1 80 51 81 116 4 217 -9 376 -46 12 -3 31 -7 42 -9 11 -3 60 -17 108
-33 48 -15 92 -28 97 -29 6 0 19 -5 30 -9 11 -5 42 -17 70 -27 97 -38 256
-126 285 -159 3 -3 14 -12 26 -20 84 -57 334 -303 334 -328 0 -5 4 -11 8 -13
8 -3 43 -47 95 -119 46 -64 96 -145 97 -156 0 -7 4 -13 8 -13 11 0 95 -177
123 -256 16 -48 58 -221 59 -245 0 -3 -6 -6 -12 -6 -30 -2 -127 -14 -149 -19
-13 -2 -40 -7 -59 -9 -19 -2 -46 -7 -60 -10 -14 -3 -40 -8 -59 -11 -42 -7 -49
-9 -146 -35 -44 -12 -86 -22 -92 -22 -7 0 -13 -5 -13 -10 0 -5 -7 -7 -15 -3
-8 3 -15 0 -15 -6 0 -6 -3 -9 -6 -5 -11 11 -262 -88 -316 -126 -16 -10 -28
-15 -28 -10 0 4 -4 3 -8 -2 -4 -6 -27 -23 -52 -37 -94 -55 -97 -34 31 -223 63
-92 119 -175 124 -184 6 -9 23 -33 38 -53 29 -38 35 -39 107 -25 26 5 125 39
135 47 6 4 33 15 60 25 28 10 55 22 60 25 6 4 24 11 40 15 17 5 35 9 40 11
127 37 199 51 295 59 133 11 296 3 403 -19 15 -3 37 -8 50 -10 12 -2 36 -9 52
-16 17 -6 30 -11 30 -10 0 3 60 -13 70 -19 6 -3 17 -6 25 -8 8 -1 23 -6 35
-12 11 -5 54 -26 95 -45 99 -47 211 -113 230 -136 3 -3 21 -17 40 -30 63 -44
201 -178 238 -231 8 -13 22 -28 29 -32 7 -4 13 -14 13 -22 0 -7 4 -15 8 -17
34 -13 208 -345 202 -383 0 -3 6 -18 14 -33 16 -31 52 -176 62 -248 9 -61 8
-338 0 -379 -4 -16 -11 -55 -17 -85 -14 -68 -63 -215 -95 -287 -14 -29 -25
-56 -26 -60 -1 -5 -6 -12 -10 -18 -5 -5 -27 -41 -50 -80 -23 -38 -45 -74 -49
-80 -5 -5 -35 -44 -68 -85 -87 -111 -214 -228 -341 -313 -62 -42 -159 -100
-170 -102 -3 -1 -25 -11 -50 -22 -73 -35 -144 -63 -170 -68 -3 -1 -31 -9 -63
-18 -137 -42 -285 -56 -629 -60 -87 -1 -158 -6 -158 -10 0 -5 -5 -5 -12 -1
-15 10 -69 11 -74 2 -3 -4 -16 -3 -29 2 -14 5 -25 6 -25 2 0 -7 -45 -8 -60 -2
-3 1 -9 2 -14 1 -34 -7 -78 -6 -82 1 -3 5 -10 5 -17 1 -14 -9 -117 -10 -117
-1 0 4 -13 3 -30 -2 -18 -5 -32 -5 -36 1 -3 5 -10 6 -16 3 -13 -8 -68 -11 -68
-4 0 3 -57 5 -128 6 -70 0 -161 3 -202 7 -41 3 -81 6 -88 7 -18 0 2 77 42 165
8 17 16 37 18 45 2 8 6 17 9 20 6 5 68 186 73 212 1 7 5 22 9 33 3 11 8 31 11
45 3 14 8 36 11 50 8 32 12 56 19 100 3 19 8 46 11 60 20 97 30 234 30 430 0
197 -5 270 -30 438 -9 59 -36 183 -45 208 -5 13 -7 24 -5 24 3 0 -2 17 -10 38
-8 20 -16 46 -18 57 -2 11 -7 28 -11 37 -4 9 -9 22 -10 30 -2 7 -7 22 -11 33
-4 11 -22 58 -40 105 -38 98 -154 337 -188 384 -4 6 -32 49 -63 96 -153 230
-332 426 -551 602 -86 69 -284 202 -373 250 -36 19 -76 41 -90 49 -14 7 -27
14 -30 14 -3 0 -20 9 -37 18 -18 10 -33 14 -33 10 0 -5 -4 -3 -8 3 -11 16
-191 88 -322 127 -63 20 -122 38 -130 41 -8 3 -28 7 -45 9 -16 3 -57 12 -90
20 -33 8 -79 18 -102 21 -22 3 -52 7 -65 10 -62 13 -149 19 -323 21 -197 2
-316 -7 -468 -36 -29 -5 -65 -12 -82 -15 -16 -3 -34 -7 -40 -8 -5 -2 -23 -6
-40 -10 -117 -29 -260 -76 -375 -123 -106 -43 -294 -135 -298 -145 -2 -4 -8
-8 -13 -8 -11 0 -183 -107 -247 -154 -107 -77 -285 -232 -377 -328 -124 -130
-132 -139 -227 -268 -43 -58 -82 -110 -87 -116 -4 -5 -14 -21 -21 -35 -7 -13
-16 -26 -19 -29 -4 -3 -12 -16 -19 -30 -7 -14 -22 -41 -33 -60 -28 -45 -103
-193 -102 -200 1 -3 -2 -9 -7 -15 -13 -15 -90 -213 -90 -230 0 -8 -5 -15 -12
-15 -6 0 -9 -3 -6 -6 3 -3 -4 -39 -17 -80 -13 -41 -21 -74 -19 -74 3 0 0 -9
-6 -20 -6 -10 -12 -32 -14 -47 -3 -15 -7 -40 -10 -55 -9 -44 -16 -80 -22 -123
-3 -22 -8 -47 -11 -55 -21 -66 -21 -532 1 -650 3 -14 7 -47 10 -75 3 -27 8
-61 11 -75 3 -14 8 -41 10 -60 5 -42 8 -53 35 -155 12 -44 24 -91 26 -104 3
-14 8 -29 12 -35 3 -6 7 -15 8 -21 1 -5 19 -55 39 -110 20 -55 38 -107 40
-115 2 -8 10 -34 19 -57 11 -32 12 -44 3 -51 -22 -17 -91 -28 -179 -27 -49 0
-88 -3 -88 -6 0 -3 -17 -4 -37 -1 -42 4 -47 4 -83 -1 -14 -2 -33 1 -42 5 -10
5 -18 5 -18 0 0 -9 -72 -8 -89 2 -6 4 -11 4 -11 -1 0 -10 -451 -10 -467 0 -6
4 -14 3 -17 -2 -3 -5 -21 -6 -40 -1 -19 4 -40 4 -47 -1 -7 -4 -20 -4 -28 1 -9
5 -23 4 -33 -1 -10 -5 -18 -6 -18 -2 0 4 -44 8 -98 9 -282 3 -518 39 -667 103
-63 27 -221 107 -223 114 -2 4 -8 7 -13 7 -11 0 -118 70 -164 108 -57 46 -151
139 -191 188 -21 27 -42 51 -45 54 -15 14 -99 148 -99 158 0 7 -4 12 -10 12
-5 0 -10 5 -10 10 0 6 -17 45 -38 88 -21 42 -39 79 -40 82 0 3 -3 12 -6 20
-38 114 -54 175 -72 280 -2 14 -7 39 -10 55 -8 41 -13 348 -6 360 3 5 7 25 8
45 1 19 4 44 7 55 2 11 8 38 12 60 5 22 9 42 10 45 1 3 7 25 14 50 29 105 113
297 151 343 5 7 29 37 52 67 65 84 77 98 169 190 133 135 252 227 369 285 80
41 214 91 270 101 14 3 39 9 55 14 59 18 186 34 268 35 37 0 67 4 67 8 0 5 5
5 10 2 6 -3 47 -8 93 -10 45 -2 97 -6 115 -9 17 -3 47 -8 65 -11 17 -3 50 -11
72 -16 22 -6 47 -12 56 -14 63 -12 331 -123 349 -144 3 -3 25 -17 50 -30 25
-14 47 -27 50 -30 3 -4 36 -28 74 -54 l70 -47 35 39 c47 51 140 155 190 211
22 25 64 72 94 104 32 35 53 66 50 75 -2 9 -18 26 -36 38 -18 13 -50 38 -72
58 -22 20 -52 43 -67 52 -16 10 -28 21 -28 25 0 4 -6 8 -13 8 -7 0 -23 9 -35
20 -12 12 -22 18 -22 14 0 -4 -8 0 -17 8 -18 16 -135 76 -227 118 -105 46
-353 121 -481 145 -22 4 -50 9 -62 11 -31 6 -68 11 -128 19 -74 10 -114 24
-126 46 -5 11 -8 23 -5 27 2 4 7 28 11 52 7 50 62 220 76 234 5 6 9 17 9 25 0
8 7 22 16 32 8 9 16 24 18 32 1 8 19 43 39 78 20 34 37 66 37 70 0 5 5 9 10 9
6 0 10 4 10 9 0 12 105 164 125 181 8 7 15 16 15 21 0 4 10 19 22 32 13 13 44
45 69 73 73 77 148 146 219 200 36 27 67 52 70 55 3 3 19 14 35 23 17 9 44 25
60 36 17 11 71 40 120 64 86 41 107 51 130 56 6 1 16 6 23 12 6 6 12 7 12 3 0
-4 6 -3 13 3 15 13 217 69 279 78 24 3 54 8 68 10 98 16 308 21 395 10 22 -3
61 -7 86 -10 119 -13 343 -73 459 -123 171 -75 255 -124 395 -228 39 -28 91
-64 116 -79 l47 -26 48 38 c95 75 294 284 321 337 24 45 -22 95 -207 230 -41
30 -80 55 -87 55 -6 0 -13 4 -15 8 -3 8 -77 53 -156 97 -21 11 -39 22 -42 25
-3 3 -26 16 -52 30 -27 13 -48 28 -48 33 0 4 -4 6 -9 3 -4 -3 -18 3 -30 13
l-22 20 23 12 c12 7 73 50 135 96 62 46 143 103 180 126 38 23 70 45 71 49 2
5 8 8 13 8 16 0 89 35 89 42 0 5 4 8 9 8 5 0 26 8 47 17 22 9 44 18 49 19 6 1
40 13 76 27 67 24 86 29 215 52 15 2 29 6 31 9 6 6 343 0 369 -7z m13 -2651
c14 -3 47 -8 75 -11 28 -3 65 -10 83 -16 17 -6 38 -9 45 -8 7 1 20 -1 28 -4 8
-4 29 -8 45 -11 17 -2 30 -5 30 -6 0 -1 7 -3 16 -5 14 -2 120 -34 139 -40 3
-1 20 -6 38 -10 17 -4 32 -11 32 -16 0 -5 3 -8 8 -7 38 10 384 -168 482 -249
8 -7 51 -41 95 -75 119 -94 204 -182 342 -352 76 -94 273 -454 273 -499 0 -9
5 -19 10 -22 6 -3 10 -17 10 -30 0 -13 4 -26 9 -29 5 -3 11 -18 14 -33 3 -16
11 -46 17 -68 34 -120 52 -210 64 -335 1 -9 4 -20 7 -25 8 -13 3 -409 -5 -460
-18 -111 -29 -168 -52 -255 -14 -52 -28 -102 -31 -110 -3 -8 -7 -19 -8 -25 -9
-36 -103 -255 -114 -265 -3 -3 -22 -35 -40 -72 -19 -38 -39 -68 -43 -68 -4 0
-8 -5 -8 -10 0 -10 -39 -70 -95 -145 -63 -85 -169 -204 -272 -306 -125 -123
-163 -165 -163 -178 0 -5 -6 -14 -14 -20 -17 -14 -28 -106 -30 -245 l-1 -101
-442 -1 -443 -1 0 116 c0 64 0 289 1 501 1 579 5 620 62 639 90 32 342 267
410 383 54 94 65 116 80 169 26 87 31 126 30 239 0 118 -7 177 -28 246 -8 26
-12 51 -9 56 3 4 0 8 -5 8 -6 0 -11 7 -11 15 0 27 -69 156 -121 226 -55 74
-140 157 -210 204 -24 16 -46 33 -49 36 -13 15 -122 58 -175 69 -151 31 -460
30 -542 -1 -13 -5 -23 -6 -23 -4 0 6 -113 -36 -120 -44 -3 -3 -17 -12 -32 -20
-15 -8 -37 -22 -47 -33 -11 -10 -25 -18 -31 -18 -5 0 -10 -4 -10 -10 0 -5 -5
-10 -10 -10 -15 0 -125 -113 -173 -179 -91 -124 -150 -283 -164 -443 -11 -130
-4 -232 24 -326 17 -61 82 -192 95 -192 4 0 8 -4 8 -10 0 -5 8 -20 17 -32 21
-27 220 -226 249 -248 52 -41 114 -80 128 -80 29 0 48 -58 54 -169 3 -58 6
-326 6 -596 l1 -490 -442 -1 c-244 -1 -443 2 -444 5 0 3 -2 69 -3 146 -4 188
-8 196 -202 395 -204 210 -249 263 -353 422 -83 128 -218 408 -203 422 3 3 0
6 -7 6 -7 0 -11 6 -8 14 3 7 2 17 -3 22 -5 5 -11 20 -14 34 -3 14 -14 56 -25
93 -11 38 -23 85 -26 105 -3 20 -8 51 -11 67 -21 117 -26 188 -26 345 0 168
11 287 34 375 6 22 12 49 13 60 6 45 45 184 62 218 7 15 11 27 9 27 -7 0 43
119 61 145 7 11 13 27 13 37 0 10 4 18 9 18 5 0 15 17 22 38 6 20 18 41 25 45
8 4 14 16 14 27 0 10 3 20 8 22 10 4 62 85 62 97 0 5 4 11 8 13 5 2 23 24 40
50 18 25 38 52 44 60 7 7 35 40 63 73 78 95 220 231 300 289 14 11 36 28 48
38 34 28 38 31 99 71 32 20 62 37 68 37 5 0 10 3 10 8 0 4 53 34 118 66 64 32
129 65 143 72 14 7 29 11 33 7 3 -3 6 -1 6 5 0 7 3 11 8 10 4 0 14 1 22 5 58
22 234 74 285 83 11 2 52 11 90 19 39 8 99 17 135 21 36 4 66 8 68 9 6 5 316
-4 341 -9z m-149 -1771 c65 -10 126 -48 147 -93 26 -53 23 -158 -6 -247 -17
-53 -61 -165 -76 -192 -4 -8 -94 26 -171 64 -136 67 -214 152 -214 231 0 41
27 112 50 134 11 11 20 22 20 26 0 15 97 73 129 77 18 2 36 6 39 10 3 3 13 3
21 1 9 -3 36 -8 61 -11z m-934 -2937 c3 -3 19 -3 37 1 44 8 741 6 755 -3 7 -4
12 -4 12 1 0 10 132 9 148 -1 7 -4 12 -4 12 1 0 9 147 9 156 1 3 -3 19 -3 37
1 28 5 433 6 447 1 3 -1 16 -1 30 0 63 6 106 5 118 -3 6 -5 12 -6 12 -1 0 11
131 11 148 0 7 -4 12 -4 12 1 0 11 133 10 141 -1 11 -14 2 -267 -10 -321 -18
-74 -57 -148 -102 -189 -21 -20 -39 -34 -39 -31 0 3 -6 3 -12 -2 -7 -4 -24 -9
-38 -10 -14 -1 -50 -4 -80 -7 -293 -29 -1493 -28 -1795 0 -27 3 -62 6 -77 7
-16 1 -28 5 -28 8 0 4 -10 9 -22 12 -34 9 -133 109 -121 121 4 3 1 6 -5 6 -7
0 -11 3 -10 8 1 4 -4 33 -11 64 -12 58 -20 316 -9 333 6 10 284 12 294 3z"/>
<path d="M3256 8420 c-2 -5 0 -556 3 -576 1 -7 94 -10 289 -8 158 0 290 2 294
3 9 2 10 581 1 582 -29 4 -585 3 -587 -1z"/>
<path d="M8292 7848 c0 -156 2 -290 4 -298 3 -13 41 -15 274 -13 148 1 280 2
293 2 l22 1 0 293 0 292 -296 3 -296 2 -1 -282z"/>
<path d="M1174 5753 c2 -10 7 -38 10 -63 11 -85 30 -173 52 -245 18 -58 21
-67 23 -77 1 -4 20 -45 43 -90 43 -86 117 -201 163 -253 15 -16 30 -34 33 -40
4 -5 37 -38 75 -72 113 -105 261 -196 394 -244 60 -21 75 -26 83 -27 3 0 17
-5 33 -11 24 -9 113 -27 187 -37 14 -2 41 -6 61 -9 l35 -6 0 294 0 295 -60 12
c-122 24 -222 68 -285 126 -70 65 -131 131 -131 142 0 7 -4 10 -10 7 -5 -3
-10 1 -10 9 0 9 -4 16 -10 16 -5 0 -10 6 -10 14 0 7 -7 19 -15 26 -8 6 -14 15
-13 18 1 4 -4 20 -11 36 -11 27 -28 92 -37 146 -3 14 -6 30 -9 37 -3 8 -84 12
-300 12 -280 1 -296 0 -291 -16z"/>
<path d="M10075 5744 c-3 -13 -8 -36 -11 -51 -3 -16 -8 -41 -11 -58 -3 -16
-14 -47 -24 -67 -11 -21 -17 -38 -13 -38 8 0 -93 -129 -130 -165 -55 -54 -120
-102 -178 -134 -32 -17 -58 -29 -58 -26 0 2 -10 1 -23 -4 -13 -5 -39 -12 -58
-15 -66 -11 -83 -16 -88 -25 -3 -5 -6 -137 -5 -293 l1 -283 22 -1 c12 -1 43 3
69 8 26 5 62 11 81 14 55 9 67 12 133 30 86 24 248 93 248 106 0 4 5 8 11 8
15 0 136 80 183 121 203 177 324 365 397 618 10 35 18 66 17 70 0 3 1 8 2 11
2 5 3 14 14 85 2 17 7 49 11 72 l7 42 -296 0 -296 0 -5 -25z"/>
</g>
</svg>
