<svg width="24" height="23" viewBox="0 0 24 23" fill="none" xmlns="http://www.w3.org/2000/svg">
<path fill-rule="evenodd" clip-rule="evenodd" d="M10.6643 0.0133769C10.5774 0.0234469 10.3136 0.053612 10.078 0.0804504C6.50986 0.486668 3.2131 2.71637 1.40394 5.94709C0.743452 7.12654 0.265368 8.58926 0.0605977 10.0571C-0.029274 10.7013 -0.0168282 12.4246 0.0823329 13.0692C0.48768 15.704 1.57462 17.8587 3.40993 19.6655C3.692 19.9431 4.10537 20.3159 4.32858 20.4939C7.22076 22.7997 11.0637 23.5722 14.655 22.5698C18.8441 21.4005 22.0771 17.8808 22.8595 13.6378C23.5603 9.83767 22.3943 6.07355 19.677 3.36472C17.8814 1.57454 15.7131 0.490804 13.1444 0.0996913C12.6949 0.0312242 11.015 -0.0272179 10.6643 0.0133769ZM12.4455 1.38119C15.9842 1.70456 19.1176 3.86826 20.6767 7.06527C21.1521 8.04017 21.4224 8.9035 21.606 10.0347C21.7187 10.7286 21.7183 12.2625 21.6053 12.9792C21.3332 14.7047 20.6711 16.2562 19.6108 17.6528C19.287 18.0793 18.5326 18.9134 18.4706 18.9134C18.4527 18.9134 18.391 18.7667 18.3334 18.5874C17.7933 16.9056 16.4341 15.3341 14.8074 14.5106L14.2833 14.2453L14.6458 13.9607C15.4899 13.298 16.1085 12.3399 16.397 11.2485C16.4907 10.8938 16.5038 10.744 16.5031 10.0347C16.5023 9.29196 16.4921 9.18901 16.3787 8.78176C15.9231 7.14556 14.76 5.89557 13.1602 5.32261C12.182 4.97228 10.86 4.97228 9.88187 5.32261C8.28204 5.89557 7.11898 7.14556 6.66336 8.78176C6.54995 9.18901 6.53975 9.29196 6.53899 10.0347C6.53827 10.744 6.55139 10.8938 6.64509 11.2485C6.9336 12.3399 7.55215 13.298 8.39626 13.9607L8.75877 14.2453L8.23469 14.5106C6.61037 15.3328 5.23691 16.9203 4.70746 18.5874C4.65051 18.7667 4.58977 18.9134 4.5724 18.9134C4.52393 18.9134 3.87205 18.2122 3.5693 17.8344C2.34883 16.3116 1.56596 14.3937 1.37779 12.4657C1.05834 9.19314 2.41778 5.86509 4.93735 3.75138C7.02979 1.996 9.75588 1.13542 12.4455 1.38119ZM12.4004 6.50921C13.6311 6.80745 14.596 7.70867 15.0196 8.95573C15.1933 9.4671 15.2248 10.3122 15.0909 10.8707C14.9153 11.6031 14.5847 12.1724 14.03 12.6978C13.6182 13.0877 13.207 13.3344 12.6484 13.5267C12.236 13.6686 12.1938 13.6742 11.521 13.6742C10.8483 13.6742 10.806 13.6686 10.3937 13.5267C9.83511 13.3344 9.42386 13.0877 9.01211 12.6978C8.45736 12.1724 8.12678 11.6031 7.95119 10.8707C7.82777 10.3559 7.8518 9.47794 8.00237 9.00069C8.5931 7.12803 10.4988 6.04847 12.4004 6.50921ZM12.6959 15.1826C14.4161 15.532 15.8897 16.6386 16.6977 18.1875C16.9461 18.6638 17.1824 19.3228 17.2282 19.667L17.2576 19.888L16.9259 20.1015C16.4665 20.3972 15.422 20.8994 14.8769 21.0866C14.3034 21.2836 13.6228 21.4508 12.9862 21.5511C12.2884 21.6611 10.7385 21.6605 10.0555 21.55C8.62462 21.3185 7.33683 20.8506 6.2057 20.1514L5.78304 19.8901L5.80793 19.6827C5.84139 19.4041 6.08381 18.6939 6.27771 18.3065C6.84062 17.1818 7.80459 16.2235 8.94374 15.6563C9.50489 15.3768 10.3066 15.1506 11.0025 15.0755C11.3603 15.0369 12.2581 15.0936 12.6959 15.1826Z" fill="#F7F7F7"/>
</svg>
