<svg width="23" height="39" viewBox="0 0 23 39" fill="none" xmlns="http://www.w3.org/2000/svg">
<path opacity="0.8" fill-rule="evenodd" clip-rule="evenodd" d="M10.1049 0.0533094C4.5675 0.745035 0.300345 5.39097 0.0149171 11.0388C-0.231019 15.9051 2.58279 20.4016 7.07142 22.3154C12.3205 24.5534 18.4335 22.5125 21.3891 17.5354C23.6166 13.7844 23.5273 8.94956 21.163 5.29858C19.4265 2.61694 16.8227 0.836663 13.6965 0.193367C12.8199 0.0129897 10.9968 -0.0581003 10.1049 0.0533094ZM13.3715 6.08929C15.2484 6.75077 16.5979 8.18576 17.1394 10.0958C17.2744 10.5719 17.3098 10.8879 17.3087 11.6073C17.307 12.7003 17.188 13.2062 16.6935 14.222C16.3933 14.8387 16.2396 15.0456 15.6214 15.6652C14.465 16.8243 13.3551 17.3142 11.726 17.3849C10.6033 17.4336 9.88961 17.2775 8.82121 16.7497C8.20815 16.4468 7.99891 16.2896 7.38222 15.6686C6.76605 15.0481 6.60937 14.8368 6.31012 14.222C5.81561 13.2062 5.6966 12.7003 5.69494 11.6073C5.69381 10.8926 5.72945 10.5712 5.86122 10.1067C6.45193 8.02448 7.97308 6.52227 10.0671 5.95317C10.4944 5.83706 10.7983 5.81402 11.6528 5.83282C12.6061 5.85381 12.775 5.87905 13.3715 6.08929ZM10.389 8.23025C8.75099 8.75577 7.6872 10.5011 7.98509 12.1743C8.49327 15.0284 11.9951 16.1323 14.0319 14.0805C14.8171 13.2895 15.1957 12.1662 15.033 11.1106C14.8251 9.76285 13.8598 8.62337 12.5898 8.22669C11.9861 8.03805 10.9828 8.03972 10.389 8.23025ZM3.32642 29.5394C3.34665 36.9752 3.34718 36.9975 3.50809 37.3468C3.73908 37.8481 4.14019 38.2605 4.6452 38.5158C5.02056 38.7055 5.17098 38.7375 5.6929 38.7385C6.22502 38.7395 6.35709 38.7109 6.73411 38.5123C6.97159 38.3873 7.89538 37.6587 8.78693 36.8933L10.408 35.5017L10.3886 30.4895L10.3692 25.4773L10.0294 25.4158C7.64416 24.9839 5.78321 24.1716 4.3017 22.9157C3.99634 22.6569 3.64741 22.3634 3.52629 22.2637L3.3061 22.0823L3.32642 29.5394ZM19.1283 22.5678C17.3292 24.1414 15.6223 24.9311 12.9743 25.4152L12.6345 25.4773L12.6151 30.4833L12.5957 35.4894L14.2188 36.8872C15.1114 37.656 16.024 38.3815 16.2467 38.4995C17.526 39.1776 19.1792 38.4721 19.5838 37.0754C19.6795 36.7448 19.6927 35.6492 19.6762 29.3976L19.6569 22.1055L19.1283 22.5678Z" fill="#000532"/>
</svg>
