<svg width="25" height="24" viewBox="0 0 25 24" fill="none" xmlns="http://www.w3.org/2000/svg">
<path d="M12.7923 22.6667C18.7906 22.6667 23.6534 17.8164 23.6534 11.8333C23.6534 5.85024 18.7906 1 12.7923 1C6.79383 1 1.93115 5.85024 1.93115 11.8333C1.93115 17.8164 6.79383 22.6667 12.7923 22.6667Z" stroke="white" stroke-width="2" stroke-linecap="round" stroke-linejoin="round"/>
<path d="M9.63171 8.58326C9.88707 7.85924 10.3911 7.24871 11.0545 6.85982C11.7179 6.47094 12.4979 6.32877 13.2563 6.45853C14.0147 6.58828 14.7025 6.98158 15.1981 7.56874C15.6937 8.15592 15.9649 8.89908 15.9637 9.6666C15.9637 11.8333 12.7054 12.9166 12.7054 12.9166" stroke="white" stroke-width="2" stroke-linecap="round" stroke-linejoin="round"/>
<path d="M12.7923 17.25H12.8031" stroke="white" stroke-width="2" stroke-linecap="round" stroke-linejoin="round"/>
</svg>
