<svg width="31" height="30" viewBox="0 0 31 30" fill="none" xmlns="http://www.w3.org/2000/svg">
<path fill-rule="evenodd" clip-rule="evenodd" d="M10.408 0.0345492C9.3034 0.219227 8.15725 0.82624 7.42242 1.61576C7.08405 1.97927 6.46938 2.90199 6.46938 3.04641C6.46938 3.0877 6.36716 3.13863 6.24215 3.15948C4.50817 3.44916 3.07607 4.4826 2.31984 5.98998C1.8592 6.90813 1.64863 8.09117 1.79297 8.95073L1.85496 9.31972L1.49666 9.68613C-0.281557 11.505 -0.502607 14.3699 0.980574 16.374L1.25368 16.743L0.928281 17.2585C0.585011 17.8024 0.282157 18.5481 0.119521 19.2501C-0.0327542 19.9074 -0.0142121 21.3314 0.155514 22.0111C0.641061 23.9555 1.85865 25.5106 3.56301 26.3632C4.37371 26.7687 5.48235 27.0555 6.239 27.0555H6.50041L6.77272 27.5211C7.11684 28.1095 7.92808 28.9257 8.50173 29.2607C9.48143 29.8329 10.3285 30.0403 11.4943 29.9936C12.9458 29.9355 14.0543 29.4248 15.0645 28.3489L15.498 27.8871L15.9316 28.3489C16.9417 29.4248 18.0502 29.9355 19.5017 29.9936C20.6669 30.0403 21.5092 29.8342 22.4967 29.2607C23.062 28.9325 23.8733 28.1153 24.2237 27.5213C24.494 27.063 24.4986 27.059 24.7495 27.0573C26.3493 27.0464 28.2631 26.1578 29.3186 24.9358C31.2433 22.7075 31.5466 19.6015 30.0681 17.2591L29.7432 16.7442L29.9832 16.4301C30.315 15.9958 30.6795 15.2438 30.8367 14.6693C31.0247 13.9822 31.025 12.7054 30.8374 12.0206C30.5889 11.1135 29.9253 10.007 29.332 9.51037C29.1487 9.35703 29.1476 9.35227 29.2058 8.99883C29.2947 8.45956 29.2197 7.51375 29.0387 6.89004C28.4668 4.92031 26.8458 3.50895 24.7539 3.15948C24.6289 3.13863 24.5267 3.0877 24.5267 3.04641C24.5267 2.90199 23.912 1.97927 23.5736 1.61576C22.9664 0.963422 22.0805 0.427351 21.1836 0.169622C20.5446 -0.0140312 19.382 -0.0559212 18.7051 0.0802967C17.6436 0.293906 16.7337 0.805807 15.9584 1.62565L15.498 2.11235L15.0284 1.6148C13.9906 0.515229 12.73 -0.0180695 11.2135 0.000976909C10.8538 0.00549741 10.4914 0.0205657 10.408 0.0345492ZM12.1715 2.06859C13.2569 2.43765 14.0782 3.36242 14.3158 4.48315C14.4502 5.1174 14.4502 24.824 14.3158 25.4583C13.9982 26.9558 12.6964 28.0203 11.1655 28.0341C9.76514 28.0467 8.62407 27.2846 8.05884 25.959C7.9113 25.6129 7.89663 25.5085 7.89566 24.7953C7.89433 23.8762 7.97522 23.6108 8.48567 22.8592C8.74999 22.4701 8.79531 22.3616 8.79531 22.1179C8.79531 21.5583 8.39084 21.1486 7.83895 21.149C7.28984 21.1493 6.95559 21.4727 6.43751 22.5049C6.11599 23.1454 5.95123 23.751 5.89137 24.5125C5.86743 24.8172 5.83622 25.0665 5.82211 25.0665C5.59778 25.0665 4.80102 24.8163 4.37886 24.6132C3.43236 24.1579 2.78412 23.514 2.31705 22.5652C1.7185 21.3491 1.66736 20.0317 2.17199 18.8259C2.70923 17.5423 3.88525 16.5225 5.22476 16.1785C5.85949 16.0155 5.83107 15.9925 5.90954 16.7337C6.00601 17.6449 6.17059 18.1403 6.45411 18.3727C6.87209 18.7155 7.36188 18.6939 7.74187 18.3159C8.04406 18.0153 8.09084 17.7765 7.96189 17.1928C7.5882 15.501 8.27699 14.0843 9.83488 13.3406C10.1527 13.1889 10.4644 12.9927 10.5517 12.8895C10.943 12.427 10.7687 11.689 10.2054 11.4231C9.91681 11.2869 9.65328 11.3011 9.22645 11.476C9.02648 11.558 8.85815 11.6251 8.85246 11.6252C8.82386 11.626 8.71333 11.2013 8.6794 10.9601C8.62977 10.6076 8.74296 9.99153 8.92941 9.59945C9.01006 9.4299 9.23511 9.11799 9.4295 8.90631C9.86621 8.43093 9.92329 8.32582 9.92329 7.99709C9.92329 7.45878 9.50409 7.04754 8.95377 7.04597C8.62922 7.04507 8.42508 7.15832 8.02291 7.56245C7.12035 8.46933 6.65262 9.69969 6.73067 10.9613C6.76593 11.5316 6.92827 12.1832 7.13659 12.5906L7.24481 12.8022L6.94869 13.1933C6.78581 13.4084 6.59293 13.6959 6.5201 13.8322L6.38764 14.0799L5.83774 14.1173C4.87852 14.1825 3.62651 14.6032 2.8592 15.1183C2.7085 15.2195 2.55986 15.3022 2.52889 15.3022C2.43946 15.3022 2.11612 14.7036 1.99105 14.3067C1.81339 13.7426 1.77994 13.2299 1.8875 12.7208C2.07237 11.8458 2.49363 11.1774 3.18017 10.6696C3.40685 10.5019 3.63984 10.2848 3.69777 10.1872C3.82902 9.96628 3.83175 9.57848 3.70486 9.18447C3.58512 8.81276 3.56955 7.84375 3.67723 7.46825C4.00917 6.31088 4.90367 5.44445 6.07309 5.14748C6.27172 5.09703 6.55803 5.05556 6.70934 5.05538C7.39103 5.0546 7.78077 4.78873 7.98334 4.18642C8.23184 3.44759 8.66316 2.86782 9.25862 2.47231C10.154 1.87753 11.1881 1.7342 12.1715 2.06859ZM20.5256 2.01995C21.5422 2.30667 22.3127 3.01887 22.7073 4.03664C22.8112 4.30462 22.929 4.57723 22.9691 4.64251C23.1232 4.89331 23.4052 4.99987 24.0543 5.05279C24.4244 5.08299 24.8149 5.15513 25.0144 5.23018C26.1761 5.66728 26.9388 6.62183 27.1359 7.88558C27.189 8.22576 27.1821 8.39887 27.0984 8.8335C26.8647 10.0469 26.9002 10.1906 27.5501 10.6607C28.1752 11.113 28.5775 11.6841 28.8044 12.441C28.9521 12.9336 28.9406 13.7614 28.7792 14.266C28.6536 14.6588 28.2976 15.3022 28.2059 15.3022C28.1773 15.3022 28.0399 15.2245 27.9006 15.1294C27.0521 14.5505 25.6651 14.1047 24.6943 14.0989L24.3469 14.0968L24.1995 13.8074C24.1184 13.6482 23.9308 13.3585 23.7827 13.1636L23.5133 12.8091L23.6539 12.5037C23.9136 11.939 24.0063 11.4635 24.007 10.6913C24.0077 9.94434 23.9394 9.59228 23.668 8.94338C23.3364 8.15054 22.4582 7.15416 22.0186 7.07219C21.3514 6.94767 20.8304 7.35415 20.8304 7.99925C20.8304 8.34589 20.8981 8.47596 21.2878 8.87732C21.8938 9.50163 22.1745 10.3324 22.0397 11.1026C21.9443 11.6475 21.9465 11.6461 21.4991 11.4663C21.0204 11.274 20.6878 11.2944 20.3698 11.5356C20.1205 11.7248 19.982 12.0051 19.982 12.3207C19.982 12.7634 20.2018 12.9983 20.9501 13.3556C21.9054 13.8116 22.5493 14.5668 22.8004 15.5254C22.9161 15.9673 22.9158 16.6875 22.7997 17.1309C22.6343 17.7625 22.7171 18.1178 23.0966 18.4058C23.4934 18.7068 23.9867 18.6655 24.3915 18.2973C24.5833 18.1228 24.763 17.4983 24.8416 16.7337C24.9177 15.9934 24.8865 16.0191 25.5142 16.1808C28.0055 16.823 29.462 19.4069 28.7295 21.8847C28.6777 22.0601 28.5229 22.4205 28.3855 22.6857C28.0788 23.2777 27.248 24.1362 26.6475 24.4815C26.266 24.7008 25.5751 24.9498 25.1254 25.0299L24.9061 25.069L24.8644 24.5705C24.7746 23.4966 24.4432 22.549 23.8853 21.7713C23.5374 21.2864 23.3235 21.1493 22.9147 21.149C22.5213 21.1487 22.2441 21.3234 22.054 21.6917C21.8602 22.0671 21.9111 22.3323 22.2825 22.8799C22.7165 23.52 22.8444 23.8953 22.8768 24.6236C22.8996 25.1387 22.8819 25.3093 22.7649 25.7014C22.3398 27.1257 21.0879 28.0455 19.5882 28.0353C18.1907 28.0259 16.9848 27.1488 16.5167 25.8012L16.3766 25.398V14.9707V4.54342L16.5167 4.14019C17.102 2.45531 18.8295 1.54168 20.5256 2.01995Z" fill="#000532"/>
</svg>
